<svg xmlns="http://www.w3.org/2000/svg" viewBox="0 0 512 512" width="100%" height="100%">
  <defs>
    <!-- Premium Gold gradient matching the user's logo -->
    <linearGradient id="premiumGold" x1="100%" y1="0%" x2="0%" y2="100%">
      <stop offset="0%" stop-color="#f6c21e" />
      <stop offset="50%" stop-color="#be8c00" />
      <stop offset="100%" stop-color="#916400" />
    </linearGradient>
  </defs>

  <!-- Left Side Shield (Navy Blue) -->
  <path d="M256 460 C100 320 80 180 120 60 C160 65 220 85 256 110 L256 128 C230 115 195 105 160 115 C125 185 140 295 256 415 Z" fill="#012e67" />

  <!-- Right Side Shield (Gold Gradient) -->
  <path d="M256 460 C412 320 432 180 392 60 C352 65 292 85 256 110 L256 128 C282 115 317 105 352 115 C387 185 372 295 256 415 Z" fill="url(#premiumGold)" />

  <!-- Overlapping Navy Blue Checkmark -->
  <path d="M135 240 C135 240 185 270 235 360 C325 240 415 120 495 15 C415 90 305 250 240 375 C195 310 160 265 135 240 Z" fill="#012e67" />
</svg>